{
  "accessors": [
    {
      "bufferView": 3,
      "componentType": 5126,
      "count": 484,
      "max": [
        0.6913241744041443,
        1.9122700691223145,
        0.303169310092926
      ],
      "min": [
        -0.6913241744041443,
        3.8615890929349916e-08,
        -0.49408501386642456
      ],
      "type": "VEC3"
    },
    {
      "bufferView": 3,
      "byteOffset": 5808,
      "componentType": 5126,
      "count": 484,
      "max": [
        0.9798150658607483,
        0.996931254863739,
        0.9994782209396362
      ],
      "min": [
        -0.9894298911094666,
        -0.978969395160675,
        -0.9996641278266907
      ],
      "type": "VEC3"
    },
    {
      "bufferView": 2,
      "componentType": 5126,
      "count": 484,
      "max": [
        0.9952476024627686,
        0.994074821472168
      ],
      "min": [
        0.004875016398727894,
        0.004099547863006592
      ],
      "type": "VEC2"
    },
    {
      "bufferView": 1,
      "componentType": 5125,
      "count": 1674,
      "type": "SCALAR"
    },
    {
      "bufferView": 3,
      "byteOffset": 11616,
      "componentType": 5126,
      "count": 106,
      "max": [
        0.321415513753891,
        0.04454127326607704,
        0.30996158719062805
      ],
      "min": [
        -0.2994163930416107,
        -0.04454127326607704,
        -1.3673969507217407
      ],
      "type": "VEC3"
    },
    {
      "bufferView": 3,
      "byteOffset": 12888,
      "componentType": 5126,
      "count": 106,
      "max": [
        0.9997254610061646,
        1.0,
        1.0
      ],
      "min": [
        -0.9981935620307922,
        -1.0,
        -1.0
      ],
      "type": "VEC3"
    },
    {
      "bufferView": 2,
      "byteOffset": 3872,
      "componentType": 5126,
      "count": 106,
      "max": [
        0.9950456023216248,
        0.9919248819351196
      ],
      "min": [
        0.0,
        0.0
      ],
      "type": "VEC2"
    },
    {
      "bufferView": 1,
      "byteOffset": 6696,
      "componentType": 5125,
      "count": 462,
      "type": "SCALAR"
    },
    {
      "bufferView": 5,
      "componentType": 5126,
      "count": 37,
      "max": [
        100.0,
        0.9993153810501099,
        1.0523462295532227,
        0.0,
        0.9944416284561157,
        100.0,
        0.3991296887397766,
        0.0,
        1.0519931316375732,
        0.778292179107666,
        100.0,
        0.0,
        1.217519998550415,
        1.2903202772140503,
        0.712678074836731,
        1.0
      ],
      "min": [
        -0.7725296020507813,
        -0.9993153214454651,
        -1.0523462295532227,
        0.0,
        -0.9944416284561157,
        -1.0517092943191528,
        -0.45637229084968567,
        0.0,
        -1.0519932508468628,
        -0.3991295397281647,
        -0.9964446425437927,
        0.0,
        -1.217519998550415,
        -1.586408019065857,
        -0.6646983027458191,
        1.0
      ],
      "type": "MAT4"
    },
    {
      "bufferView": 0,
      "componentType": 5123,
      "count": 484,
      "type": "VEC4"
    },
    {
      "bufferView": 4,
      "componentType": 5126,
      "count": 484,
      "max": [
        1.0,
        0.5,
        0.3333333432674408,
        0.0
      ],
      "min": [
        0.3333333432674408,
        0.0,
        0.0,
        0.0
      ],
      "type": "VEC4"
    }
  ],
  "asset": {
    "extras": {
      "author": "pyr0xene (https://sketchfab.com/pyr0xene)",
      "license": "CC-BY-4.0 (http://creativecommons.org/licenses/by/4.0/)",
      "source": "https://sketchfab.com/3d-models/elizabeth-1116f2dac62b490b989ff0634aae0bf9",
      "title": "elizabeth"
    },
    "generator": "Sketchfab-16.16.0",
    "version": "2.0"
  },
  "bufferViews": [
    {
      "buffer": 0,
      "byteLength": 3872,
      "byteStride": 8,
      "name": "shortBufferViews",
      "target": 34962
    },
    {
      "buffer": 0,
      "byteLength": 8544,
      "byteOffset": 3872,
      "name": "floatBufferViews",
      "target": 34963
    },
    {
      "buffer": 0,
      "byteLength": 4720,
      "byteOffset": 12416,
      "byteStride": 8,
      "name": "floatBufferViews",
      "target": 34962
    },
    {
      "buffer": 0,
      "byteLength": 14160,
      "byteOffset": 17136,
      "byteStride": 12,
      "name": "floatBufferViews",
      "target": 34962
    },
    {
      "buffer": 0,
      "byteLength": 7744,
      "byteOffset": 31296,
      "byteStride": 16,
      "name": "floatBufferViews",
      "target": 34962
    },
    {
      "buffer": 0,
      "byteLength": 2368,
      "byteOffset": 39040,
      "name": "floatBufferViews"
    }
  ],
  "buffers": [
    {
      "byteLength": 41408,
      "uri": "scene.bin"
    }
  ],
  "images": [
    {
      "uri": "textures/elizabeth_mat_emissive.png"
    },
    {
      "uri": "textures/elizabeth_sword_mat_emissive.png"
    }
  ],
  "materials": [
    {
      "doubleSided": true,
      "emissiveFactor": [
        1.0,
        1.0,
        1.0
      ],
      "emissiveTexture": {
        "index": 0
      },
      "name": "elizabeth_mat",
      "pbrMetallicRoughness": {
        "baseColorFactor": [
          0.0,
          0.0,
          0.0,
          1.0
        ],
        "metallicFactor": 0.0
      }
    },
    {
      "doubleSided": true,
      "emissiveFactor": [
        1.0,
        1.0,
        1.0
      ],
      "emissiveTexture": {
        "index": 1
      },
      "name": "elizabeth_sword_mat",
      "pbrMetallicRoughness": {
        "baseColorFactor": [
          0.0,
          0.0,
          0.0,
          1.0
        ],
        "metallicFactor": 0.0
      }
    }
  ],
  "meshes": [
    {
      "name": "elizabeth_elizabeth_mat_0",
      "primitives": [
        {
          "attributes": {
            "JOINTS_0": 9,
            "NORMAL": 1,
            "POSITION": 0,
            "TEXCOORD_0": 2,
            "WEIGHTS_0": 10
          },
          "indices": 3,
          "material": 0,
          "mode": 4
        }
      ]
    },
    {
      "name": "elizabeth_sword_elizabeth_sword_mat_0",
      "primitives": [
        {
          "attributes": {
            "NORMAL": 5,
            "POSITION": 4,
            "TEXCOORD_0": 6
          },
          "indices": 7,
          "material": 1,
          "mode": 4
        }
      ]
    }
  ],
  "nodes": [
    {
      "children": [
        1
      ],
      "matrix": [
        1.0,
        0.0,
        0.0,
        0.0,
        0.0,
        2.220446049250313e-16,
        -1.0,
        0.0,
        0.0,
        1.0,
        2.220446049250313e-16,
        0.0,
        0.0,
        0.0,
        0.0,
        1.0
      ],
      "name": "Sketchfab_model"
    },
    {
      "children": [
        2
      ],
      "matrix": [
        0.009999999776482582,
        0.0,
        0.0,
        0.0,
        0.0,
        0.0,
        0.009999999776482582,
        0.0,
        0.0,
        -0.009999999776482582,
        0.0,
        0.0,
        0.0,
        0.0,
        0.0,
        1.0
      ],
      "name": "elizabeth.fbx"
    },
    {
      "children": [
        3,
        44
      ],
      "name": "RootNode"
    },
    {
      "children": [
        4
      ],
      "matrix": [
        95.0,
        0.0,
        0.0,
        0.0,
        0.0,
        -1.5477464542223984e-05,
        -94.99999999999875,
        0.0,
        0.0,
        94.99999999999875,
        -1.5477464542223984e-05,
        0.0,
        0.0,
        0.0,
        0.0,
        1.0
      ],
      "name": "elizabeth_armature"
    },
    {
      "children": [
        5,
        7,
        6
      ],
      "name": "Object_4"
    },
    {
      "children": [
        8
      ],
      "name": "_rootJoint"
    },
    {
      "matrix": [
        100.00000357628437,
        -4.305040253387124e-14,
        1.0135737498059242e-12,
        0.0,
        1.0135737293515955e-12,
        1.5465818367850156e-07,
        -100.00000155167488,
        0.0,
        4.305040009428232e-14,
        100.00000155071851,
        1.5465818367702246e-07,
        0.0,
        -1.0290082612319007e-13,
        3.892594889975953e-06,
        4.152416828162586e-07,
        1.0
      ],
      "name": "Object_6"
    },
    {
      "mesh": 0,
      "name": "Object_7",
      "skin": 0
    },
    {
      "children": [
        9,
        32,
        37,
        42
      ],
      "name": "waist_01",
      "rotation": [
        0.7249282002449036,
        -8.211429047833008e-08,
        -8.641820414823087e-08,
        0.688824474811554
      ],
      "translation": [
        4.404117927349106e-19,
        -0.08684170246124268,
        0.8570217490196228
      ]
    },
    {
      "children": [
        10,
        17,
        24,
        30
      ],
      "name": "chest_02",
      "rotation": [
        -0.16900430619716644,
        0.002641022438183427,
        0.0008738928590901196,
        0.9856114983558655
      ],
      "scale": [
        1.0,
        0.9999998807907104,
        1.0
      ],
      "translation": [
        4.404091560967081e-19,
        0.17486581206321716,
        0.0
      ]
    },
    {
      "children": [
        11
      ],
      "name": "shoulder_L_03",
      "rotation": [
        0.05918605253100395,
        0.0729086697101593,
        -0.8078050017356873,
        0.5819213390350342
      ],
      "scale": [
        1.0,
        1.0,
        1.0000001192092896
      ],
      "translation": [
        8.731149137020111e-11,
        0.27038872241973877,
        -2.4571136236772873e-08
      ]
    },
    {
      "children": [
        12,
        15
      ],
      "name": "upperarm_L_04",
      "rotation": [
        -0.04623399302363396,
        0.06027907133102417,
        -0.24879516661167145,
        0.9655722975730896
      ],
      "scale": [
        0.9999998211860657,
        1.0,
        0.9999998211860657
      ],
      "translation": [
        2.44705006480217e-07,
        0.20673611760139465,
        -5.820766091346741e-09
      ]
    },
    {
      "children": [
        13
      ],
      "name": "lowerarm_L_05",
      "rotation": [
        0.03583216294646263,
        -0.012778137810528278,
        0.05959465354681015,
        0.9974974989891052
      ],
      "scale": [
        0.9999998211860657,
        0.9999998807907104,
        0.9999999403953552
      ],
      "translation": [
        -3.271270543336868e-08,
        0.21672412753105164,
        -2.0954757928848267e-09
      ]
    },
    {
      "children": [
        14
      ],
      "name": "hand_L_06",
      "rotation": [
        -0.015935393050312996,
        -0.0014755255542695522,
        0.042546555399894714,
        0.99896639585495
      ],
      "scale": [
        1.0,
        0.9999999403953552,
        0.9999998211860657
      ],
      "translation": [
        2.6193447411060333e-09,
        0.22493724524974823,
        -9.313225746154785e-10
      ]
    },
    {
      "name": "hand_L_end_026",
      "rotation": [
        0.0,
        0.0,
        6.08689721123312e-17,
        1.0
      ],
      "translation": [
        -2.220446049250313e-16,
        0.19184055924415588,
        -3.469446951953614e-18
      ]
    },
    {
      "children": [
        16
      ],
      "name": "pauldron_L_07",
      "rotation": [
        -0.07236320525407791,
        -0.20231053233146667,
        -0.062127113342285156,
        0.9746662378311157
      ],
      "scale": [
        0.9999998807907104,
        0.9999997615814209,
        0.9999998807907104
      ],
      "translation": [
        -0.07971697300672531,
        0.3304595947265625,
        -0.05772501602768898
      ]
    },
    {
      "name": "pauldron_L_end_027",
      "rotation": [
        -2.7755575615628914e-17,
        -5.7777898331617076e-34,
        2.0816681711721685e-17,
        1.0
      ],
      "translation": [
        -1.1102230246251565e-16,
        0.44616052508354187,
        0.0
      ]
    },
    {
      "children": [
        18
      ],
      "name": "shoulder_R_08",
      "rotation": [
        0.055027786642313004,
        -0.07591980695724487,
        0.8065613508224487,
        0.583666980266571
      ],
      "scale": [
        0.9999999403953552,
        1.0,
        1.0
      ],
      "translation": [
        0.0014142432482913136,
        0.2703850269317627,
        6.920084160810802e-06
      ]
    },
    {
      "children": [
        19,
        22
      ],
      "name": "upperarm_R_09",
      "rotation": [
        -0.04623401537537575,
        -0.06027908995747566,
        0.24879513680934906,
        0.9655722975730896
      ],
      "scale": [
        0.9999999403953552,
        1.0,
        0.9999999403953552
      ],
      "translation": [
        -1.1199153959751129e-07,
        0.20673605799674988,
        -1.4086253941059113e-08
      ]
    },
    {
      "children": [
        20
      ],
      "name": "lowerarm_R_010",
      "rotation": [
        0.03583217039704323,
        0.012778136879205704,
        -0.05959460511803627,
        0.9974974989891052
      ],
      "scale": [
        0.9999999403953552,
        0.9999999403953552,
        1.0
      ],
      "translation": [
        3.271270543336868e-08,
        0.21672415733337402,
        3.958120942115784e-09
      ]
    },
    {
      "children": [
        21
      ],
      "name": "hand_R_011",
      "rotation": [
        -0.015935389325022697,
        0.001475525670684874,
        -0.04254654049873352,
        0.99896639585495
      ],
      "scale": [
        1.0000001192092896,
        1.0000001192092896,
        0.9999998807907104
      ],
      "translation": [
        -9.20990714803338e-08,
        0.22493736445903778,
        -5.587935447692871e-09
      ]
    },
    {
      "name": "hand_R_end_028",
      "rotation": [
        9.26442286059391e-23,
        -1.0587911840678754e-22,
        1.3129540905214302e-17,
        1.0
      ],
      "translation": [
        -2.220446049250313e-16,
        0.19184055924415588,
        0.0
      ]
    },
    {
      "children": [
        23
      ],
      "name": "pauldron_R_012",
      "rotation": [
        -0.07236316800117493,
        0.2023104727268219,
        0.06212715804576874,
        0.9746662378311157
      ],
      "scale": [
        1.0,
        0.9999998807907104,
        1.0
      ],
      "translation": [
        0.07971703261137009,
        0.3304596543312073,
        -0.05772501975297928
      ]
    },
    {
      "name": "pauldron_R_end_029",
      "rotation": [
        0.0,
        0.0,
        7.28583859910259e-17,
        1.0
      ],
      "translation": [
        0.0,
        0.44616052508354187,
        -5.551115123125783e-17
      ]
    },
    {
      "children": [
        25
      ],
      "name": "neck_013",
      "rotation": [
        0.17777423560619354,
        -0.008302329108119011,
        -0.006419885437935591,
        0.9840153455734253
      ],
      "translation": [
        8.731149137020111e-11,
        0.27038872241973877,
        -2.4571136236772873e-08
      ]
    },
    {
      "children": [
        26,
        28
      ],
      "name": "head_014",
      "rotation": [
        -0.07536599785089493,
        0.006198071874678135,
        0.004957002121955156,
        0.9971243739128113
      ],
      "scale": [
        0.9999999403953552,
        1.0000001192092896,
        1.0
      ],
      "translation": [
        -5.238689482212067e-10,
        0.07899794727563858,
        -5.587935447692871e-09
      ]
    },
    {
      "children": [
        27
      ],
      "name": "ahoge_015",
      "rotation": [
        0.29061755537986755,
        0.12981610000133514,
        0.16279655694961548,
        0.9339092373847961
      ],
      "scale": [
        1.0000001192092896,
        1.0,
        1.0000001192092896
      ],
      "translation": [
        -0.10938439518213272,
        0.43309491872787476,
        0.14363916218280792
      ]
    },
    {
      "name": "ahoge_end_030",
      "rotation": [
        2.7755575615628914e-17,
        5.551115123125783e-17,
        1.3877787807814457e-17,
        1.0
      ],
      "translation": [
        1.1102230246251565e-16,
        0.22469580173492432,
        1.1102230246251565e-16
      ]
    },
    {
      "children": [
        29
      ],
      "name": "hood_016",
      "rotation": [
        0.9790433645248413,
        0.0011714325519278646,
        -0.005633588880300522,
        -0.2035711109638214
      ],
      "scale": [
        1.0,
        1.0000001192092896,
        1.0000008344650269
      ],
      "translation": [
        5.5018873013068514e-08,
        0.08526991307735443,
        -0.23167084157466888
      ]
    },
    {
      "name": "hood_end_031",
      "rotation": [
        8.326672684688674e-17,
        -8.673617379884035e-19,
        8.673617379884035e-19,
        1.0
      ],
      "translation": [
        0.0,
        0.4062471091747284,
        0.0
      ]
    },
    {
      "children": [
        31
      ],
      "name": "flame_017",
      "rotation": [
        0.121881403028965,
        -0.0011277934536337852,
        -0.0008181271841749549,
        0.9925436973571777
      ],
      "scale": [
        1.0,
        1.0000001192092896,
        1.0000001192092896
      ],
      "translation": [
        -0.00047780503518879414,
        0.09558013826608658,
        0.148214191198349
      ]
    },
    {
      "name": "flame_end_032",
      "rotation": [
        -3.469446951953614e-18,
        2.168404344971009e-19,
        7.52316384526264e-37,
        1.0
      ],
      "translation": [
        1.0842021724855044e-19,
        0.1706819385290146,
        0.0
      ]
    },
    {
      "children": [
        33
      ],
      "name": "hip_L_018",
      "rotation": [
        0.5809305906295776,
        0.43521082401275635,
        0.5393394231796265,
        -0.4268772304058075
      ],
      "scale": [
        1.0,
        0.9999999403953552,
        1.0
      ],
      "translation": [
        -8.877380155071122e-16,
        1.1175870895385742e-08,
        -7.450580596923828e-09
      ]
    },
    {
      "children": [
        34
      ],
      "name": "upperleg_L_019",
      "rotation": [
        -0.6189831495285034,
        0.02415311150252819,
        -2.748213410086464e-05,
        0.7850328087806702
      ],
      "translation": [
        -7.916241884231567e-09,
        0.11933587491512299,
        -2.9132934287190437e-08
      ]
    },
    {
      "children": [
        35
      ],
      "name": "lowerleg_L_020",
      "rotation": [
        0.01922227256000042,
        0.010597760789096355,
        0.03462464362382889,
        0.9991593360900879
      ],
      "translation": [
        -1.0993971955031157e-08,
        0.3649100661277771,
        1.1837983038276434e-08
      ]
    },
    {
      "children": [
        36
      ],
      "name": "foot_L_021",
      "rotation": [
        -0.01828155294060707,
        -0.0441911444067955,
        -0.45069271326065063,
        0.89139723777771
      ],
      "scale": [
        0.9999999403953552,
        0.9999999403953552,
        1.0
      ],
      "translation": [
        -8.847564458847046e-09,
        0.32277846336364746,
        -1.6880221664905548e-09
      ]
    },
    {
      "name": "foot_L_end_033",
      "rotation": [
        -9.62964972193618e-35,
        -3.469446951953614e-18,
        -2.7755575615628914e-17,
        1.0
      ],
      "translation": [
        0.0,
        0.17909085750579834,
        0.0
      ]
    },
    {
      "children": [
        38
      ],
      "name": "hip_R_022",
      "rotation": [
        0.5809305906295776,
        -0.43521079421043396,
        -0.5393396615982056,
        -0.4268769919872284
      ],
      "scale": [
        1.0,
        0.9999999403953552,
        1.0000001192092896
      ],
      "translation": [
        -8.877380155071122e-16,
        1.1175870895385742e-08,
        -7.450580596923828e-09
      ]
    },
    {
      "children": [
        39
      ],
      "name": "upperleg_R_00",
      "rotation": [
        -0.6189831495285034,
        -0.024153098464012146,
        2.7472744477563538e-05,
        0.7850328087806702
      ],
      "scale": [
        0.9999999403953552,
        1.0,
        0.9999999403953552
      ],
      "translation": [
        -3.259629011154175e-09,
        0.11933586001396179,
        -2.87545844912529e-08
      ]
    },
    {
      "children": [
        40
      ],
      "name": "lowerleg_R_023",
      "rotation": [
        0.01922226883471012,
        -0.01059776358306408,
        -0.03462466225028038,
        0.9991593360900879
      ],
      "translation": [
        4.780304152518511e-09,
        0.3649100661277771,
        1.5628756955266e-08
      ]
    },
    {
      "children": [
        41
      ],
      "name": "foot_R_024",
      "rotation": [
        -0.018281573429703712,
        0.0441911518573761,
        0.45069271326065063,
        0.89139723777771
      ],
      "scale": [
        1.0,
        0.9999998807907104,
        1.0
      ],
      "translation": [
        -2.0954757928848267e-09,
        0.3227784335613251,
        5.413312464952469e-09
      ]
    },
    {
      "name": "foot_R_end_034",
      "rotation": [
        6.938893903907228e-18,
        -1.0408340855860843e-17,
        2.7755575615628914e-17,
        1.0
      ],
      "translation": [
        0.0,
        0.17909085750579834,
        -1.3877787807814457e-17
      ]
    },
    {
      "children": [
        43
      ],
      "name": "skirt_025",
      "rotation": [
        0.9857670664787292,
        -6.728200281629234e-16,
        -2.3502518331497413e-07,
        -0.1681169867515564
      ],
      "scale": [
        1.0,
        1.0,
        0.999999463558197
      ],
      "translation": [
        -6.775017435955988e-09,
        0.07432188093662262,
        -0.028416477143764496
      ]
    },
    {
      "name": "skirt_end_035",
      "rotation": [
        2.7755575615628914e-17,
        2.6469779601696886e-23,
        -7.346839692639297e-40,
        1.0
      ],
      "translation": [
        -1.3234889800848443e-23,
        0.6923376321792603,
        0.0
      ]
    },
    {
      "children": [
        45
      ],
      "matrix": [
        100.0,
        0.0,
        0.0,
        0.0,
        0.0,
        -1.629206793918314e-05,
        -99.99999999999868,
        0.0,
        0.0,
        99.99999999999868,
        -1.629206793918314e-05,
        0.0,
        99.96583557128906,
        131.19107055664063,
        -10.872422218322754,
        1.0
      ],
      "name": "elizabeth_sword"
    },
    {
      "mesh": 1,
      "name": "elizabeth_sword_elizabeth_sword_mat_0"
    }
  ],
  "samplers": [
    {
      "magFilter": 9728,
      "minFilter": 9728,
      "wrapS": 10497,
      "wrapT": 10497
    },
    {
      "magFilter": 9728,
      "minFilter": 9986,
      "wrapS": 10497,
      "wrapT": 10497
    }
  ],
  "scene": 0,
  "scenes": [
    {
      "name": "Sketchfab_Scene",
      "nodes": [
        0
      ]
    }
  ],
  "skins": [
    {
      "inverseBindMatrices": 8,
      "joints": [
        5,
        8,
        9,
        10,
        11,
        12,
        13,
        14,
        15,
        16,
        17,
        18,
        19,
        20,
        21,
        22,
        23,
        24,
        25,
        26,
        27,
        28,
        29,
        30,
        31,
        32,
        33,
        34,
        35,
        36,
        37,
        38,
        39,
        40,
        41,
        42,
        43
      ],
      "skeleton": 5
    }
  ],
  "textures": [
    {
      "sampler": 0,
      "source": 0
    },
    {
      "sampler": 1,
      "source": 1
    }
  ]
}
