# Blender 3.3.8
# www.blender.org
o Border
v -1.000000 -0.000000 1.000000
v 1.000000 -0.000000 1.000000
v -1.000000 0.000000 -1.000000
v 1.000000 0.000000 -1.000000
v 0.950000 -0.000000 1.000000
v 0.950000 0.000000 -1.000000
v 0.950000 -0.000000 0.950000
v 0.950000 0.000000 -0.950000
v -0.950000 0.000000 -1.000000
v -0.950000 -0.000000 1.000000
v -0.950000 -0.000000 0.950000
v -0.950000 0.000000 -0.950000
vn -0.0000 1.0000 -0.0000
vt 0.999900 0.000100
vt 0.999900 0.999900
vt 0.000100 0.000101
vt 0.000100 0.999900
vt 0.999900 0.974905
vt 0.000100 0.974905
vt 0.974905 0.974905
vt 0.025095 0.974905
vt 0.000100 0.025096
vt 0.999900 0.025095
vt 0.974905 0.025095
vt 0.025095 0.025096
s 0
f 6/6/1 12/12/1 8/8/1
f 5/5/1 11/11/1 10/10/1
f 6/6/1 9/9/1 12/12/1
f 5/5/1 7/7/1 11/11/1
f 8/8/1 4/4/1 6/6/1
f 1/1/1 11/11/1 12/12/1
f 12/12/1 3/3/1 1/1/1
f 2/2/1 7/7/1 5/5/1
f 8/8/1 7/7/1 4/4/1
f 1/1/1 10/10/1 11/11/1
f 12/12/1 9/9/1 3/3/1
f 2/2/1 4/4/1 7/7/1
