# Blender 3.3.6
# www.blender.org
o Heart
v 0.000000 0.400000 -0.707107 1.0000 0.6118 0.2118
v 0.144430 -0.400000 -0.831470 1.0000 0.0000 0.6745
v 0.144430 0.400000 -0.831470 1.0000 0.6118 0.2157
v 0.317317 -0.400000 -0.923880 1.0000 0.0000 0.6706
v 0.317317 0.400000 -0.923880 1.0000 0.6118 0.2118
v 0.504910 -0.400000 -0.980785 1.0000 0.0118 0.6706
v 0.504910 0.400000 -0.980785 1.0000 0.6118 0.2118
v 0.700000 -0.400000 -1.000000 1.0000 0.0000 0.6706
v 0.700000 0.400000 -1.000000 1.0000 0.6118 0.2118
v 0.895090 -0.400000 -0.980785 1.0000 0.0000 0.8980
v 0.895090 0.400000 -0.980785 1.0000 0.2353 0.8431
v 1.082684 -0.400000 -0.923879 1.0000 0.0235 0.9098
v 1.082684 0.400000 -0.923879 1.0000 0.6118 0.2118
v 1.255570 -0.400000 -0.831469 1.0000 0.3294 0.8666
v 1.255570 0.400000 -0.831469 1.0000 0.6157 0.2196
v 1.407107 -0.400000 -0.707107 1.0000 0.2823 0.8862
v 1.407107 0.400000 -0.707107 1.0000 0.5804 0.3843
v 1.531470 -0.400000 -0.555570 1.0000 0.2823 0.8862
v 1.531470 0.400000 -0.555570 1.0000 0.0510 0.6000
v 1.623880 -0.400000 -0.382683 1.0000 0.2823 0.8862
v 1.623880 0.400000 -0.382683 1.0000 0.0510 0.6039
v 1.680785 -0.400000 -0.195090 1.0000 0.6157 0.6745
v 1.680785 0.400000 -0.195090 1.0000 0.0353 0.7764
v 1.700000 -0.400000 0.000000 1.0000 0.6236 0.6667
v 1.700000 0.400000 0.000000 0.9882 0.0039 0.9960
v 1.680785 -0.400000 0.195090 1.0000 0.0000 0.9098
v 1.680785 0.400000 0.195090 0.8431 0.0118 0.9568
v 1.623879 -0.400000 0.382684 1.0000 0.0118 0.9098
v 1.623879 0.400000 0.382684 0.6118 0.2392 0.9764
v 1.531470 -0.400000 0.555570 1.0000 0.6432 0.6197
v 1.531470 0.400000 0.555570 0.6118 0.2314 0.9764
v 1.407107 0.400000 0.707107 0.5725 0.2353 0.9764
v 0.000000 -0.400000 -0.707107 1.0000 0.0000 0.6706
v -0.000000 0.400000 2.121320 0.0000 0.8078 1.0000
v -0.000000 -0.400000 2.121320 1.0000 0.9215 0.0000
v 1.407107 -0.400000 0.707107 1.0000 0.7804 0.4157
v -0.144430 -0.400000 -0.831470 0.9019 0.4392 0.6039
v -0.144430 0.400000 -0.831470 1.0000 0.6118 0.2118
v -0.317317 -0.400000 -0.923880 0.6706 0.7451 0.6039
v -0.317317 0.400000 -0.923880 1.0000 0.6079 0.2353
v -0.504910 -0.400000 -0.980785 0.2353 0.9764 0.1961
v -0.504910 0.400000 -0.980785 1.0000 0.0471 0.9137
v -0.700000 -0.400000 -1.000000 0.4039 0.9176 0.3608
v -0.700000 0.400000 -1.000000 1.0000 0.0000 0.9098
v -0.895090 -0.400000 -0.980785 0.4039 0.9176 0.3608
v -0.895090 0.400000 -0.980785 1.0000 0.0000 0.9098
v -1.082683 -0.400000 -0.923880 0.2627 0.9686 0.2235
v -1.082683 0.400000 -0.923880 1.0000 0.1176 0.9568
v -1.255570 -0.400000 -0.831470 0.5608 0.8313 0.5059
v -1.255570 0.400000 -0.831470 1.0000 0.0000 0.9568
v -1.407107 -0.400000 -0.707107 0.7764 0.9960 0.0902
v -1.407107 0.400000 -0.707107 1.0000 0.1176 0.9568
v -1.531470 -0.400000 -0.555570 0.8784 0.9411 0.3059
v -1.531470 0.400000 -0.555570 1.0000 0.0000 0.9568
v -1.623880 -0.400000 -0.382683 0.8823 0.9333 0.3255
v -1.623880 0.400000 -0.382683 0.9843 1.0000 0.0196
v -1.680785 -0.400000 -0.195090 0.7451 0.8784 0.4589
v -1.680785 0.400000 -0.195090 0.6980 0.7412 0.6393
v -1.700000 -0.400000 -0.000000 0.2196 0.7686 0.6393
v -1.700000 0.400000 -0.000000 0.2549 1.0000 0.0039
v -1.680785 -0.400000 0.195090 0.0510 0.2039 0.9804
v -1.680785 0.400000 0.195090 0.2510 1.0000 0.0039
v -1.623879 -0.400000 0.382683 0.0549 0.2235 0.9764
v -1.623879 0.400000 0.382683 0.2510 1.0000 0.0039
v -1.531470 -0.400000 0.555570 0.0980 0.4235 0.9019
v -1.531470 0.400000 0.555570 0.2510 1.0000 0.0039
v -1.407107 0.400000 0.707107 0.2549 1.0000 0.0078
v -1.407107 -0.400000 0.707107 0.1059 0.2039 0.9804
vn -0.6525 -0.0000 -0.7578
vn -0.4714 -0.0000 -0.8819
vn -0.2903 -0.0000 -0.9569
vn -0.0980 -0.0000 -0.9952
vn 0.0980 -0.0000 -0.9952
vn 0.2903 -0.0000 -0.9569
vn 0.4714 -0.0000 -0.8819
vn 0.6344 -0.0000 -0.7730
vn 0.7730 -0.0000 -0.6344
vn 0.8819 -0.0000 -0.4714
vn 0.9569 -0.0000 -0.2903
vn 0.9952 -0.0000 -0.0980
vn 0.9952 -0.0000 0.0980
vn 0.9569 -0.0000 0.2903
vn 0.8819 -0.0000 0.4714
vn 0.7730 -0.0000 0.6344
vn -0.0000 1.0000 -0.0000
vn -0.0000 -1.0000 -0.0000
vn 0.7089 -0.0000 0.7053
vn 0.6525 -0.0000 -0.7578
vn -0.6344 -0.0000 -0.7730
vn -0.7730 -0.0000 -0.6344
vn -0.8819 -0.0000 -0.4714
vn -0.9569 -0.0000 -0.2903
vn -0.9952 -0.0000 -0.0980
vn -0.9952 -0.0000 0.0980
vn -0.9569 -0.0000 0.2903
vn -0.8819 -0.0000 0.4714
vn -0.7730 -0.0000 0.6344
vn -0.7089 -0.0000 0.7053
s 0
f 1//1 2//1 33//1
f 3//2 4//2 2//2
f 5//3 6//3 4//3
f 7//4 8//4 6//4
f 9//5 10//5 8//5
f 11//6 12//6 10//6
f 13//7 14//7 12//7
f 15//8 16//8 14//8
f 17//9 18//9 16//9
f 19//10 20//10 18//10
f 21//11 22//11 20//11
f 23//12 24//12 22//12
f 25//13 26//13 24//13
f 27//14 28//14 26//14
f 29//15 30//15 28//15
f 31//16 36//16 30//16
f 1//17 19//17 11//17
f 2//18 18//18 26//18
f 32//19 35//19 36//19
f 36//18 35//18 33//18
f 34//17 32//17 1//17
f 37//20 1//20 33//20
f 39//7 38//7 37//7
f 41//6 40//6 39//6
f 43//5 42//5 41//5
f 45//4 44//4 43//4
f 47//3 46//3 45//3
f 49//2 48//2 47//2
f 51//21 50//21 49//21
f 53//22 52//22 51//22
f 55//23 54//23 53//23
f 57//24 56//24 55//24
f 59//25 58//25 57//25
f 61//26 60//26 59//26
f 63//27 62//27 61//27
f 65//28 64//28 63//28
f 68//29 66//29 65//29
f 40//17 56//17 64//17
f 68//18 51//18 43//18
f 35//30 67//30 68//30
f 68//18 33//18 35//18
f 34//17 1//17 67//17
f 1//1 3//1 2//1
f 3//2 5//2 4//2
f 5//3 7//3 6//3
f 7//4 9//4 8//4
f 9//5 11//5 10//5
f 11//6 13//6 12//6
f 13//7 15//7 14//7
f 15//8 17//8 16//8
f 17//9 19//9 18//9
f 19//10 21//10 20//10
f 21//11 23//11 22//11
f 23//12 25//12 24//12
f 25//13 27//13 26//13
f 27//14 29//14 28//14
f 29//15 31//15 30//15
f 31//16 32//16 36//16
f 5//17 3//17 1//17
f 1//17 32//17 31//17
f 31//17 29//17 27//17
f 27//17 25//17 23//17
f 23//17 21//17 19//17
f 19//17 17//17 15//17
f 15//17 13//17 11//17
f 11//17 9//17 7//17
f 7//17 5//17 1//17
f 1//17 31//17 27//17
f 27//17 23//17 19//17
f 19//17 15//17 11//17
f 11//17 7//17 1//17
f 1//17 27//17 19//17
f 36//18 33//18 2//18
f 2//18 4//18 6//18
f 6//18 8//18 10//18
f 10//18 12//18 14//18
f 14//18 16//18 18//18
f 18//18 20//18 22//18
f 22//18 24//18 26//18
f 26//18 28//18 30//18
f 30//18 36//18 2//18
f 2//18 6//18 10//18
f 10//18 14//18 18//18
f 18//18 22//18 26//18
f 26//18 30//18 2//18
f 2//18 10//18 18//18
f 32//19 34//19 35//19
f 37//20 38//20 1//20
f 39//7 40//7 38//7
f 41//6 42//6 40//6
f 43//5 44//5 42//5
f 45//4 46//4 44//4
f 47//3 48//3 46//3
f 49//2 50//2 48//2
f 51//21 52//21 50//21
f 53//22 54//22 52//22
f 55//23 56//23 54//23
f 57//24 58//24 56//24
f 59//25 60//25 58//25
f 61//26 62//26 60//26
f 63//27 64//27 62//27
f 65//28 66//28 64//28
f 68//29 67//29 66//29
f 1//17 38//17 40//17
f 40//17 42//17 44//17
f 44//17 46//17 48//17
f 48//17 50//17 52//17
f 52//17 54//17 56//17
f 56//17 58//17 60//17
f 60//17 62//17 64//17
f 64//17 66//17 67//17
f 67//17 1//17 40//17
f 40//17 44//17 48//17
f 48//17 52//17 56//17
f 56//17 60//17 64//17
f 64//17 67//17 40//17
f 40//17 48//17 56//17
f 37//18 33//18 68//18
f 68//18 65//18 63//18
f 63//18 61//18 59//18
f 59//18 57//18 55//18
f 55//18 53//18 51//18
f 51//18 49//18 47//18
f 47//18 45//18 43//18
f 43//18 41//18 39//18
f 39//18 37//18 68//18
f 68//18 63//18 59//18
f 59//18 55//18 51//18
f 51//18 47//18 43//18
f 43//18 39//18 68//18
f 68//18 59//18 51//18
f 35//30 34//30 67//30
